<?xml version="1.0" standalone="no"?>
<!DOCTYPE svg PUBLIC "-//W3C//DTD SVG 20010904//EN"
 "http://www.w3.org/TR/2001/REC-SVG-20010904/DTD/svg10.dtd">
<svg version="1.0" xmlns="http://www.w3.org/2000/svg"
 width="150.000000pt" height="143.000000pt" viewBox="0 0 150.000000 143.000000"
 preserveAspectRatio="xMidYMid meet">

<g transform="translate(0.000000,143.000000) scale(0.100000,-0.100000)"
fill="#000000" stroke="none">
<path d="M1177 1370 c-183 -31 -357 -124 -497 -265 -58 -58 -68 -65 -105 -65
-60 0 -162 -27 -217 -57 -124 -68 -238 -244 -238 -370 0 -40 11 -42 77 -8 51
27 136 46 162 38 9 -3 39 -31 68 -61 52 -56 52 -57 36 -82 -46 -70 -55 -110
-25 -110 9 0 41 11 70 25 l54 25 59 -53 c57 -51 59 -53 59 -105 0 -33 -9 -74
-24 -111 -13 -33 -20 -64 -16 -71 26 -41 232 50 326 144 72 72 101 139 111
254 6 76 7 77 55 120 111 100 216 272 254 417 20 73 26 263 11 318 -7 27 -8
27 -90 26 -45 -1 -104 -5 -130 -9z m163 -151 c0 -183 -73 -350 -218 -501 -25
-26 -50 -44 -55 -41 -6 3 -7 1 -4 -4 12 -19 -140 -143 -266 -217 l-75 -44 -43
44 -44 45 30 23 c17 13 33 22 38 19 4 -2 6 -1 5 4 -2 5 15 27 36 48 82 83 116
166 82 194 -28 23 -93 -19 -224 -143 l-63 -60 -47 47 -46 47 18 32 c53 92 139
210 204 280 199 211 393 310 620 317 l52 1 0 -91z"/>
<path d="M973 1123 c-12 -2 -36 -20 -53 -39 -74 -85 -9 -214 109 -214 100 0
154 123 89 205 -34 43 -84 60 -145 48z m95 -90 c26 -28 23 -57 -10 -85 -28
-25 -55 -22 -83 7 -33 32 -32 68 2 94 31 25 58 20 91 -16z"/>
<path d="M285 501 c-40 -18 -112 -88 -135 -130 -9 -18 -9 -25 3 -34 14 -10 9
-28 -33 -132 -50 -122 -58 -155 -40 -155 6 0 64 27 130 60 66 33 124 60 130
60 5 0 10 -7 10 -15 0 -21 11 -19 56 11 58 38 94 75 114 114 20 39 35 100 25
100 -3 0 -27 -17 -53 -39 -26 -21 -62 -46 -79 -55 -29 -15 -33 -15 -33 -1 0
23 -12 19 -84 -30 -37 -25 -71 -45 -75 -45 -8 0 47 169 68 209 7 12 29 40 48
62 34 38 35 39 12 39 -13 0 -42 -9 -64 -19z"/>
</g>
</svg>
