<?xml version="1.0" standalone="no"?>
<!DOCTYPE svg PUBLIC "-//W3C//DTD SVG 20010904//EN"
 "http://www.w3.org/TR/2001/REC-SVG-20010904/DTD/svg10.dtd">
<svg version="1.0" xmlns="http://www.w3.org/2000/svg"
 width="1024.000000pt" height="1024.000000pt" viewBox="0 0 1024.000000 1024.000000"
 preserveAspectRatio="xMidYMid meet">

<g transform="translate(0.000000,1024.000000) scale(0.100000,-0.100000)"
fill="#000000" stroke="none">
<path d="M8777 6770 c-183 -31 -357 -124 -497 -265 -58 -58 -68 -65 -105 -65
-60 0 -162 -27 -217 -57 -124 -68 -238 -244 -238 -370 0 -40 11 -42 77 -8 51
27 136 46 162 38 9 -3 39 -31 68 -61 52 -56 52 -57 36 -82 -46 -70 -55 -110
-25 -110 9 0 41 11 70 25 l54 25 59 -53 c57 -51 59 -53 59 -105 0 -33 -9 -74
-24 -111 -13 -33 -20 -64 -16 -71 26 -41 232 50 326 144 72 72 101 139 111
254 6 76 7 77 55 120 111 100 216 272 254 417 20 73 26 263 11 318 -7 27 -8
27 -90 26 -45 -1 -104 -5 -130 -9z m163 -151 c0 -183 -73 -350 -218 -501 -25
-26 -50 -44 -55 -41 -6 3 -7 1 -4 -4 12 -19 -140 -143 -266 -217 l-75 -44 -43
44 -44 45 30 23 c17 13 33 22 38 19 4 -2 6 -1 5 4 -2 5 15 27 36 48 82 83 116
166 82 194 -28 23 -93 -19 -224 -143 l-63 -60 -47 47 -46 47 18 32 c53 92 139
210 204 280 199 211 393 310 620 317 l52 1 0 -91z"/>
<path d="M8573 6523 c-12 -2 -36 -20 -53 -39 -74 -85 -9 -214 109 -214 100 0
154 123 89 205 -34 43 -84 60 -145 48z m95 -90 c26 -28 23 -57 -10 -85 -28
-25 -55 -22 -83 7 -33 32 -32 68 2 94 31 25 58 20 91 -16z"/>
<path d="M7885 5901 c-40 -18 -112 -88 -135 -130 -9 -18 -9 -25 3 -34 14 -10
9 -28 -33 -132 -50 -122 -58 -155 -40 -155 6 0 64 27 130 60 66 33 124 60 130
60 5 0 10 -7 10 -15 0 -21 11 -19 56 11 58 38 94 75 114 114 20 39 35 100 25
100 -3 0 -27 -17 -53 -39 -26 -21 -62 -46 -79 -55 -29 -15 -33 -15 -33 -1 0
23 -12 19 -84 -30 -37 -25 -71 -45 -75 -45 -8 0 47 169 68 209 7 12 29 40 48
62 34 38 35 39 12 39 -13 0 -42 -9 -64 -19z"/>
<path d="M1612 5678 c-17 -17 -17 -999 0 -1016 7 -7 41 -12 85 -12 89 0 93 5
93 124 0 80 2 86 27 105 32 26 26 30 161 -121 l95 -108 92 0 c69 0 96 4 105
15 6 8 10 19 8 24 -1 6 -66 80 -143 167 -77 86 -144 162 -148 170 -6 11 29 54
132 160 78 80 141 151 141 158 0 28 -25 36 -114 36 l-91 0 -132 -137 -132
-138 -1 277 c0 238 -2 279 -16 292 -19 20 -144 22 -162 4z"/>
<path d="M2384 5671 c-59 -36 -70 -129 -21 -179 51 -50 149 -35 182 28 54 105
-60 213 -161 151z"/>
<path d="M3412 5678 c-17 -17 -17 -999 0 -1016 7 -7 41 -12 83 -12 42 0 76 5
83 12 8 8 12 46 12 103 0 85 2 93 26 116 l25 24 57 -60 c30 -33 85 -90 120
-127 l64 -68 89 0 c66 0 91 4 103 16 9 8 16 17 16 20 0 2 -70 81 -156 175
l-155 170 33 37 c19 20 81 86 138 146 121 124 126 132 110 152 -9 10 -36 14
-103 14 l-90 0 -137 -135 -137 -136 -6 188 c-4 103 -7 229 -7 279 0 57 -4 94
-12 102 -7 7 -40 12 -78 12 -38 0 -71 -5 -78 -12z"/>
<path d="M2907 5379 c-105 -25 -204 -106 -254 -207 -25 -51 -28 -67 -28 -162
0 -93 3 -112 27 -162 34 -74 112 -152 186 -186 50 -24 69 -27 162 -27 92 0
112 3 160 26 65 30 125 80 146 120 7 15 14 30 14 33 0 8 -111 96 -121 96 -5 0
-21 -13 -35 -30 -120 -134 -343 -65 -360 111 -5 46 -1 62 23 109 60 118 213
144 312 54 21 -18 44 -34 51 -34 19 0 120 80 120 95 0 13 -35 62 -60 83 -92
78 -224 109 -343 81z"/>
<path d="M4432 5372 c-28 -10 -61 -27 -72 -37 -19 -18 -20 -17 -20 1 0 34 -21
44 -88 44 -111 0 -102 30 -102 -360 0 -294 2 -341 16 -354 11 -11 35 -16 83
-16 103 0 101 -4 101 239 0 226 7 257 64 292 47 29 126 26 164 -6 43 -36 52
-88 52 -307 0 -138 3 -197 12 -206 7 -7 41 -12 83 -12 42 0 76 5 83 12 9 9 12
70 12 215 0 226 8 266 62 304 64 46 159 30 198 -33 18 -30 20 -50 20 -253 0
-159 3 -224 12 -233 16 -16 150 -16 166 0 9 9 12 77 12 245 0 213 -2 237 -21
290 -31 84 -105 155 -183 178 -108 32 -235 6 -307 -62 l-26 -24 -33 31 c-45
42 -92 60 -170 66 -48 3 -79 0 -118 -14z"/>
<path d="M6499 5377 c-185 -53 -300 -237 -269 -433 21 -129 94 -227 210 -283
47 -22 69 -26 145 -26 77 0 98 4 149 28 59 27 59 27 73 7 12 -17 25 -20 88
-20 64 0 76 3 85 20 7 13 10 134 10 343 -1 386 4 367 -101 367 -65 0 -70 -2
-81 -25 -6 -14 -14 -24 -17 -22 -92 52 -204 69 -292 44z m164 -178 c44 -12
102 -59 124 -102 8 -17 15 -56 16 -87 2 -210 -278 -277 -373 -89 -40 77 -16
191 51 241 61 45 114 56 182 37z"/>
<path d="M7373 5376 c-24 -8 -58 -23 -76 -34 l-34 -19 -10 28 c-11 28 -13 29
-87 29 -64 0 -77 -3 -86 -19 -15 -30 -14 -973 2 -989 7 -7 41 -12 83 -12 42 0
76 5 83 12 8 8 12 60 12 166 0 84 3 152 8 150 98 -51 107 -53 202 -53 76 1
105 5 143 22 65 30 148 112 181 179 50 102 50 246 -1 350 -35 71 -125 156
-190 178 -66 24 -178 29 -230 12z m186 -196 c56 -32 84 -81 89 -155 5 -71 -17
-126 -67 -168 -95 -79 -248 -52 -302 54 -26 51 -27 134 -3 184 47 100 183 141
283 85z"/>
<path d="M8203 5376 c-24 -8 -58 -23 -78 -35 -32 -19 -35 -19 -35 -3 0 33 -22
42 -97 42 -59 0 -74 -3 -81 -17 -14 -26 -15 -959 -2 -984 9 -16 22 -19 83 -19
44 0 78 5 85 12 8 8 12 59 12 165 0 84 2 153 4 153 2 0 30 -12 62 -27 49 -22
74 -27 144 -27 103 -1 172 27 250 100 113 106 146 285 80 439 -29 69 -109 147
-183 180 -74 34 -179 43 -244 21z m127 -177 c165 -38 204 -253 63 -353 -127
-89 -308 5 -306 159 0 85 63 176 131 191 15 3 32 7 37 9 17 6 28 5 75 -6z"/>
<path d="M2362 5368 c-17 -17 -17 -689 0 -706 7 -7 41 -12 83 -12 42 0 76 5
83 12 9 9 12 100 12 349 0 294 -2 340 -16 353 -19 20 -144 22 -162 4z"/>
<path d="M5322 5368 c-7 -7 -12 -18 -12 -25 0 -7 36 -97 81 -200 44 -104 106
-248 137 -321 l55 -133 -32 -77 c-70 -163 -87 -218 -72 -236 17 -20 153 -23
169 -3 5 6 42 89 80 182 39 94 116 278 171 410 154 371 156 376 144 394 -8 13
-28 16 -94 16 l-84 0 -82 -205 c-109 -272 -98 -251 -113 -215 -44 115 -165
402 -173 413 -13 16 -158 17 -175 0z"/>
<path d="M6023 4855 c-60 -26 -81 -109 -41 -160 23 -29 78 -57 100 -51 7 3 26
7 41 10 56 13 87 113 51 165 -17 24 -71 51 -101 51 -10 -1 -32 -7 -50 -15z"/>
</g>
</svg>
